<?xml version="1.0" standalone="no"?><!DOCTYPE svg PUBLIC "-//W3C//DTD SVG 1.1//EN" "http://www.w3.org/Graphics/SVG/1.1/DTD/svg11.dtd"><svg t="1533206262859" class="icon" style="" viewBox="0 0 1024 1024" version="1.1" xmlns="http://www.w3.org/2000/svg" p-id="6598" xmlns:xlink="http://www.w3.org/1999/xlink" width="48" height="48"><defs><style type="text/css"></style></defs><path d="M950.238554 146.169057 73.118809 146.169057c-40.364313 0-73.097832 32.733519-73.097832 73.088622l0 584.745814c0 40.364313 32.733519 73.098855 73.097832 73.098855l877.119745 0c40.364313 0 73.088622-32.733519 73.088622-73.098855L1023.327176 219.256656C1023.327176 178.901553 990.602867 146.169057 950.238554 146.169057zM271.59621 741.337245l-70.579475 0L201.016735 263.371386l70.579475 0L271.59621 741.337245zM359.806227 741.337245l-46.511313 0L313.294914 263.371386l46.511313 0L359.806227 741.337245zM533.031501 741.337245 430.375469 741.337245 430.375469 263.371386l102.655008 0L533.030477 741.337245zM645.308657 741.337245l-68.971861 0L576.336796 263.371386l68.971861 0L645.308657 741.337245zM807.303144 741.337245l-43.305295 0L763.997849 263.371386l43.305295 0L807.303144 741.337245z" p-id="6599"></path></svg>