<?xml version="1.0" standalone="no"?><!DOCTYPE svg PUBLIC "-//W3C//DTD SVG 1.1//EN" "http://www.w3.org/Graphics/SVG/1.1/DTD/svg11.dtd"><svg class="icon" width="48px" height="48.00px" viewBox="0 0 1024 1024" version="1.1" xmlns="http://www.w3.org/2000/svg"><path d="M512 1012.8c276.8 0 500.8-224 500.8-500.8S788.8 11.2 512 11.2 11.2 235.2 11.2 512s224 500.8 500.8 500.8z m0 11.2C228.8 1024 0 795.2 0 512S228.8 0 512 0s512 228.8 512 512-228.8 512-512 512z" fill="#E8E8E8" /><path d="M256 288c-8 0-14.4 6.4-14.4 14.4v326.4c0 8 6.4 14.4 14.4 14.4h512c8 0 14.4-6.4 14.4-14.4V302.4c0-8-6.4-14.4-14.4-14.4H256z m144 457.6c20.8 0 36.8-16 36.8-36.8V672H256c-22.4 0-41.6-19.2-41.6-41.6V302.4c0-22.4 19.2-41.6 41.6-41.6h512c22.4 0 41.6 19.2 41.6 41.6v326.4c0 22.4-19.2 41.6-41.6 41.6H587.2v36.8c0 20.8 16 36.8 36.8 36.8h65.6c8 0 14.4 6.4 14.4 14.4s-6.4 14.4-14.4 14.4H334.4c-8 0-14.4-6.4-14.4-14.4s6.4-14.4 14.4-14.4H400z" fill="#4B4D51" /><path d="M256 278.4c-8 0-14.4 6.4-14.4 14.4v326.4c0 8 6.4 14.4 14.4 14.4h512c8 0 14.4-6.4 14.4-14.4V292.8c0-8-6.4-14.4-14.4-14.4H256zM400 736c20.8 0 36.8-16 36.8-36.8v-36.8H256c-22.4 0-41.6-19.2-41.6-41.6V292.8c0-22.4 19.2-41.6 41.6-41.6h512c22.4 0 41.6 19.2 41.6 41.6v326.4c0 22.4-19.2 41.6-41.6 41.6H587.2v36.8c0 20.8 16 36.8 36.8 36.8h65.6c8 0 14.4 6.4 14.4 14.4s-6.4 14.4-14.4 14.4H334.4c-8 0-14.4-6.4-14.4-14.4s6.4-14.4 14.4-14.4H400z" fill="#898C92" /><path d="M256 278.4c-8 0-14.4 6.4-14.4 14.4v326.4c0 8 6.4 14.4 14.4 14.4h512c8 0 14.4-6.4 14.4-14.4V292.8c0-8-6.4-14.4-14.4-14.4H256z" fill="#EFF1F3" /><path d="M436.8 660.8v9.6l150.4 28.8v-38.4z" fill="#4B4D51" /><path d="M768 278.4c8 0 14.4 6.4 14.4 14.4v326.4c0 8-6.4 14.4-14.4 14.4h-116.8L512 278.4h256z" fill="#FFFFFF" /></svg>