<?xml version="1.0" standalone="no"?><!DOCTYPE svg PUBLIC "-//W3C//DTD SVG 1.1//EN" "http://www.w3.org/Graphics/SVG/1.1/DTD/svg11.dtd"><svg class="icon" width="16px" height="16.00px" viewBox="0 0 1024 1024" version="1.1" xmlns="http://www.w3.org/2000/svg"><path d="M810.622057 0.011587H214.193718A56.139716 56.139716 0 0 0 158.233649 55.971656v911.888628A56.139716 56.139716 0 0 0 214.193718 1024h595.44028a56.139716 56.139716 0 0 0 55.960068-55.960069V55.971656A53.894127 53.894127 0 0 0 810.622057 0.011587zM214.193718 37.378182h595.44028a18.683297 18.683297 0 0 1 18.952768 18.593474v658.945526H195.510421V55.971656a17.964709 17.964709 0 0 1 18.683297-18.593474z m596.428339 948.177341H214.193718a18.683297 18.683297 0 0 1-18.683297-18.683298v-215.576508h633.076345v215.576508a17.425768 17.425768 0 0 1-17.964709 18.683298z"  /><path d="M427.883931 127.830492h167.97003a18.683297 18.683297 0 1 0 0-37.366595h-167.97003a18.683297 18.683297 0 1 0 0 37.366595zM512.857005 796.117666a74.643366 74.643366 0 1 0 74.643366 74.643366 74.912837 74.912837 0 0 0-74.643366-74.643366z m0 111.021902a37.366595 37.366595 0 1 1 37.276771-37.276771 38.713948 38.713948 0 0 1-37.276771 37.366595z"  /></svg>