<?xml version="1.0" standalone="no"?><!DOCTYPE svg PUBLIC "-//W3C//DTD SVG 1.1//EN" "http://www.w3.org/Graphics/SVG/1.1/DTD/svg11.dtd"><svg t="1533206194617" class="icon" style="" viewBox="0 0 1024 1024" version="1.1" xmlns="http://www.w3.org/2000/svg" p-id="4681" xmlns:xlink="http://www.w3.org/1999/xlink" width="48" height="48"><defs><style type="text/css"></style></defs><path d="M762.770286 773.229714v-65.316571a13.056 13.056 0 1 0-26.112 0v65.316571h-65.316572a13.056 13.056 0 1 0 0 26.112h65.316572v65.316572a13.056 13.056 0 1 0 26.112 0v-65.316572h65.316571a13.056 13.056 0 1 0 0-26.112h-65.316571z m-135.424-110.774857a318.72 318.72 0 0 0-143.213715-33.609143 320.365714 320.365714 0 0 0-214.272 81.956572 320.329143 320.329143 0 0 0-104.594285 201.728 27.867429 27.867429 0 0 1-55.369143-6.4 376.064 376.064 0 0 1 122.770286-236.8 377.709714 377.709714 0 0 1 110.006857-68.754286A267.483429 267.483429 0 0 1 295.862857 563.2a263.899429 263.899429 0 0 1-77.824-187.830857c0-70.948571 27.648-137.691429 77.824-187.867429A263.899429 263.899429 0 0 1 483.693714 109.714286c70.948571 0 137.654857 27.648 187.830857 77.787428a263.936 263.936 0 0 1 77.787429 187.867429c0 70.948571-27.611429 137.654857-77.787429 187.830857-14.262857 14.262857-29.805714 26.660571-46.445714 37.12 18.395429 7.460571 36.205714 16.347429 53.394286 26.697143l2.925714-1.28a166.546286 166.546286 0 0 1 65.28-13.165714 166.546286 166.546286 0 0 1 118.491429 49.078857A167.058286 167.058286 0 0 1 914.285714 780.178286a166.582857 166.582857 0 0 1-49.078857 118.528 167.021714 167.021714 0 0 1-118.528 49.115428 166.582857 166.582857 0 0 1-118.528-49.115428 167.021714 167.021714 0 0 1-49.115428-118.491429 166.582857 166.582857 0 0 1 48.310857-117.76z m-299.008-131.766857c27.062857 27.062857 59.977143 46.189714 95.817143 56.246857h0.109714a222.061714 222.061714 0 0 0 118.820571 0 218.441143 218.441143 0 0 0 95.926857-56.246857 218.258286 218.258286 0 0 0 64.365715-155.318857 218.258286 218.258286 0 0 0-64.365715-155.355429 218.258286 218.258286 0 0 0-155.318857-64.365714 218.258286 218.258286 0 0 0-155.355428 64.365714 218.258286 218.258286 0 0 0-64.365715 155.355429c0 58.660571 22.893714 113.846857 64.365715 155.318857z" fill="#000000" p-id="4682"></path></svg>