<?xml version="1.0" standalone="no"?><!DOCTYPE svg PUBLIC "-//W3C//DTD SVG 1.1//EN" "http://www.w3.org/Graphics/SVG/1.1/DTD/svg11.dtd"><svg class="icon" width="16px" height="16.00px" viewBox="0 0 1024 1024" version="1.1" xmlns="http://www.w3.org/2000/svg"><path d="M886.286 111.222l-748.591 0c-40.156 0-72.757 32.603-72.757 72.756l0 474.928c0 40.203 32.6 72.845 72.757 72.845l76.228 0c13.358 0 24.187 10.829 24.187 24.276l0 131.113c0 12.605 2.668 23.218 7.826 31.603 7.081 11.456 18.615 18.036 31.68 18.036 12.379 0 24.717-5.844 36.584-17.243l167.621-160.971c14.674-14.043 46.51-26.814 66.713-26.814l337.752 0c40.117 0 72.775-32.641 72.775-72.845l0-474.928c0-40.154-32.659-72.756-72.775-72.756zM910.491 658.906c0 13.339-10.887 24.295-24.205 24.295l-337.752 0c-33.11 0-76.248 17.32-100.278 40.339l-161.519 155.175 0-122.689c0-40.125-32.68-72.825-72.814-72.825l-76.228 0c-13.418 0-24.266-10.957-24.266-24.295l0-474.928c0-13.338 10.848-24.293 24.266-24.293l748.591 0c13.319 0 24.205 10.956 24.205 24.293l0 474.928zM511.971 395.94c-22.383 0-40.486 18.165-40.486 40.498 0 22.313 18.103 40.478 40.486 40.478 22.284 0 40.547-18.165 40.547-40.478 0-22.333-18.264-40.498-40.547-40.498zM717.784 395.94c-22.266 0-40.509 18.165-40.509 40.498 0 22.313 18.242 40.478 40.509 40.478 22.322 0 40.468-18.165 40.468-40.478-0.001-22.333-18.145-40.498-40.468-40.498zM306.177 395.97c-22.383 0-40.488 18.135-40.488 40.469 0 22.373 18.105 40.575 40.488 40.575 22.264 0 40.527-18.204 40.527-40.575 0.001-22.333-18.263-40.469-40.527-40.469z" /></svg>