<?xml version="1.0" standalone="no"?><!DOCTYPE svg PUBLIC "-//W3C//DTD SVG 1.1//EN" "http://www.w3.org/Graphics/SVG/1.1/DTD/svg11.dtd"><svg class="icon" width="48px" height="48.00px" viewBox="0 0 1024 1024" version="1.1" xmlns="http://www.w3.org/2000/svg"><path d="M512 170.496C281.6 170.496 80.896 309.76 0 512c80.896 198.144 281.6 341.504 512 341.504s431.104-139.264 512-341.504c-80.896-198.144-281.6-341.504-512-341.504z m0 598.528c-179.2 0-341.504-101.376-418.304-257.024C170.496 355.84 332.8 254.976 512 254.976s341.504 100.864 418.304 257.024c-76.8 155.648-239.104 257.024-418.304 257.024z"  /><path d="M512 328.192C406.528 328.192 323.584 409.6 323.584 512s83.456 183.808 188.416 183.808 188.416-81.408 188.416-183.808-82.944-183.808-188.416-183.808z m0 282.112c-56.832 0-100.864-42.496-100.864-98.304 0-25.6 8.704-51.2 30.72-68.608 17.408-16.896 44.032-29.696 70.144-29.696 56.832 0 100.864 42.496 100.864 98.304 0 55.296-44.032 98.304-100.864 98.304z"  /></svg>