<?xml version="1.0" standalone="no"?><!DOCTYPE svg PUBLIC "-//W3C//DTD SVG 1.1//EN" "http://www.w3.org/Graphics/SVG/1.1/DTD/svg11.dtd"><svg class="icon" width="48px" height="48.00px" viewBox="0 0 1024 1024" version="1.1" xmlns="http://www.w3.org/2000/svg"><path d="M722.090667 103.936C668.928 50.688 598.101333 21.333333 522.837333 21.333333s-145.962667 29.354667-199.168 82.602667a279.68 279.68 0 0 0-82.474666 199.168c0 59.008 18.048 115.498667 52.224 163.328a15.317333 15.317333 0 0 0 1.706666 2.517333l0.938667 1.194667 2.517333 3.328 1.450667 1.877333 0.085333 0.085334 209.194667 274.816a17.066667 17.066667 0 0 0 27.221333 0.042666l209.237334-274.858666 4.010666-5.290667 1.066667-1.408c0.597333-0.725333 1.066667-1.536 1.493333-2.261333a279.765333 279.765333 0 0 0 52.352-163.370667 279.808 279.808 0 0 0-82.602666-199.168z m-199.210667 320.938667c-53.973333 0-97.877333-43.946667-97.877333-97.92s43.904-97.877333 97.877333-97.877334a97.92 97.92 0 0 1 0 195.797334z"  /><path d="M636.074667 667.392c122.325333 19.370667 209.322667 68.352 209.322666 125.866667 0 74.453333-145.664 134.826667-325.290666 134.826666s-325.205333-60.373333-325.205334-134.826666c0-57.514667 86.997333-106.496 209.28-125.866667-162.005333 20.565333-279.893333 83.029333-279.893333 156.970667 0 90.666667 177.237333 164.096 395.818667 164.096s395.861333-73.429333 395.861333-164.096c0.042667-73.941333-117.802667-136.405333-279.893333-156.970667z"  /></svg>