<?xml version="1.0" standalone="no"?><!DOCTYPE svg PUBLIC "-//W3C//DTD SVG 1.1//EN" "http://www.w3.org/Graphics/SVG/1.1/DTD/svg11.dtd"><svg class="icon" width="48px" height="48.00px" viewBox="0 0 1024 1024" version="1.1" xmlns="http://www.w3.org/2000/svg"><path d="M64 64.033v896h896v-896H64z m261.461 697.889c-8.739 8.75-20.212 13.125-31.675 13.125-11.463 0-22.936-4.375-31.675-13.125-137.791-137.791-137.791-361.988 0-499.778 17.478-17.5 45.872-17.5 63.35 0 17.5 17.489 17.5 45.861 0 63.35-102.856 102.856-102.856 270.222 0 373.078 17.5 17.489 17.5 45.861 0 63.35z m98.995-162.345c17.5 17.489 17.5 45.861 0 63.35-8.739 8.75-20.212 13.125-31.675 13.125s-22.936-4.375-31.675-13.125c-83.213-83.202-83.213-218.586 0-301.788 17.478-17.5 45.872-17.5 63.35 0 17.5 17.489 17.5 45.861 0 63.35-48.267 48.278-48.267 126.809 0 175.088z m87.543-28.204c-32.772 0-59.339-26.567-59.339-59.34 0-32.772 26.567-59.339 59.339-59.339 32.773 0 59.34 26.567 59.34 59.339 0 32.773-26.568 59.34-59.34 59.34z m119.22 104.679c-11.463 0-22.936-4.375-31.675-13.125-17.5-17.489-17.5-45.861 0-63.35 48.267-48.278 48.267-126.809 0-175.087-17.5-17.489-17.5-45.861 0-63.35 17.478-17.5 45.872-17.5 63.35 0 83.213 83.202 83.213 218.586 0 301.788-8.739 8.749-20.213 13.124-31.675 13.124z m130.67 85.87c-8.739 8.75-20.212 13.125-31.675 13.125-11.462 0-22.936-4.375-31.675-13.125-17.5-17.489-17.5-45.861 0-63.35 102.856-102.856 102.856-270.222 0-373.078-17.5-17.489-17.5-45.861 0-63.35 17.478-17.5 45.872-17.5 63.35 0 137.791 137.79 137.791 361.987 0 499.778z" /></svg>